<svg width="856" height="159" viewBox="0 0 856 159" fill="none" xmlns="http://www.w3.org/2000/svg">
<path d="M107.917 33.1424C107.651 29.8664 107.172 27.0956 106.479 24.8299C105.797 22.5539 104.943 20.6424 103.917 19.1008C102.901 17.5487 101.802 16.2987 100.625 15.3508C99.4427 14.3924 98.2292 13.5539 96.9792 12.8299C93.6875 11.0539 89.3125 10.1633 83.8542 10.1633H65.3125V136.017H46.375V10.1633H30.5833C27.1094 10.1633 24.2187 10.2987 21.9167 10.5591C19.6094 10.8247 17.6302 11.2883 15.9792 11.9549C14.3385 12.6112 12.9792 13.4966 11.8958 14.6216C10.8125 15.7362 9.77603 17.1424 8.79165 18.8508C7.60936 20.632 6.60936 22.6529 5.79165 24.9133C4.96873 27.1789 4.45832 29.9237 4.24998 33.1424H0.604151C0.671859 32.1008 0.718734 31.0747 0.749985 30.0591C0.791651 29.0331 0.812485 28.0591 0.812485 27.1424C0.812485 24.8404 0.755193 22.6997 0.645818 20.7258C0.546859 18.757 0.499985 16.9133 0.499985 15.2049C0.499985 12.9706 0.677067 11.0122 1.04165 9.32994C1.41665 7.65285 2.20832 6.26744 3.41665 5.1841C4.6354 4.10077 6.39582 3.29869 8.68748 2.76744C10.9896 2.24139 14.0521 1.97577 17.875 1.97577H96.4792C99.8958 1.97577 102.635 2.26223 104.708 2.82994C106.776 3.38723 108.365 4.19452 109.479 5.2466C110.604 6.28827 111.359 7.60077 111.75 9.1841C112.151 10.757 112.354 12.5591 112.354 14.6008C112.354 16.7154 112.255 19.0331 112.062 21.5591C111.865 24.0904 111.771 26.8664 111.771 29.8924C111.771 30.4237 111.771 30.9654 111.771 31.5174C111.771 32.0747 111.802 32.6164 111.875 33.1424H107.917Z" fill="white"/>
<path d="M260.593 136.226C259.676 136.226 258.557 136.273 257.239 136.372C255.932 136.465 254.489 136.517 252.906 136.517C250.333 136.517 247.499 136.252 244.406 135.726C241.322 135.2 238.202 134.054 235.051 132.288C231.895 130.512 228.822 127.95 225.822 124.601C222.833 121.241 220.161 116.7 217.801 110.976L184.364 30.8716L165.426 74.0799C166.869 72.8299 168.853 71.9289 171.385 71.3716C173.911 70.8195 176.656 70.5383 179.614 70.5383C183.098 70.5383 186.536 70.9029 189.926 71.6216C193.312 72.3456 196.031 73.3299 198.072 74.5799C194.057 74.7049 190.27 75.2987 186.718 76.3508C183.176 77.4081 179.869 78.757 176.801 80.3924C173.744 82.0331 170.916 83.9237 168.322 86.0591C165.723 88.1997 163.39 90.4081 161.322 92.6841C159.249 94.9497 157.447 97.2206 155.906 99.4966C154.364 101.762 153.098 103.882 152.114 105.851L139.176 136.226H130.01L187.906 0.100769H191.656L237.614 110.976C239.265 114.783 240.812 118.007 242.26 120.642C243.702 123.267 245.26 125.424 246.926 127.101C248.603 128.783 250.515 130.054 252.656 130.913C254.791 131.762 257.437 132.32 260.593 132.58V136.226Z" fill="white"/>
<path d="M378.757 2.57993L292.153 127.934H373.34V136.017H266.903V132.372L351.236 10.6633H309.319C305.569 10.6633 302.429 10.882 299.903 11.3091C297.371 11.7258 295.236 12.3299 293.486 13.1216C291.746 13.9133 290.351 14.8716 289.299 15.9966C288.241 17.1112 287.387 18.3508 286.736 19.7258C285.819 21.2414 285.012 23.3508 284.319 26.0591C283.621 28.757 282.95 32.0383 282.299 35.9133H278.653C279.038 30.5799 279.262 26.0591 279.319 22.3508C279.387 18.632 279.59 15.5383 279.924 13.0799C280.257 10.6112 280.866 8.67368 281.757 7.26743C282.642 5.85076 284.09 4.79867 286.09 4.10076C288.09 3.40805 290.799 2.98618 294.215 2.82993C297.642 2.66326 302.054 2.57993 307.444 2.57993H378.757Z" fill="white"/>
<path d="M529.85 136.226C528.933 136.226 527.814 136.273 526.496 136.372C525.189 136.465 523.746 136.517 522.163 136.517C519.59 136.517 516.756 136.252 513.663 135.726C510.579 135.2 507.459 134.054 504.308 132.288C501.152 130.512 498.079 127.95 495.079 124.601C492.09 121.241 489.418 116.7 487.058 110.976L453.621 30.8716L434.683 74.0799C436.126 72.8299 438.11 71.9289 440.642 71.3716C443.168 70.8195 445.913 70.5383 448.871 70.5383C452.355 70.5383 455.793 70.9029 459.183 71.6216C462.569 72.3456 465.288 73.3299 467.329 74.5799C463.314 74.7049 459.527 75.2987 455.975 76.3508C452.433 77.4081 449.126 78.757 446.058 80.3924C443.001 82.0331 440.173 83.9237 437.579 86.0591C434.98 88.1997 432.647 90.4081 430.579 92.6841C428.506 94.9497 426.704 97.2206 425.162 99.4966C423.621 101.762 422.355 103.882 421.371 105.851L408.433 136.226H399.267L457.163 0.100769H460.913L506.871 110.976C508.522 114.783 510.069 118.007 511.517 120.642C512.959 123.267 514.517 125.424 516.183 127.101C517.86 128.783 519.772 130.054 521.913 130.913C524.048 131.762 526.694 132.32 529.85 132.58V136.226Z" fill="white"/>
<path d="M707.493 158.913C699.269 158.913 692.691 157.924 687.764 155.955C682.831 153.981 679.035 151.038 676.368 147.122C673.701 143.205 671.936 138.372 671.076 132.622C670.227 126.872 669.805 120.247 669.805 112.747V23.8716L618.326 136.017H615.16L563.68 23.8716V136.017H555.097V2.37158H573.93L622.368 106.83L669.805 2.37158H688.66V112.747C688.66 114.721 688.67 117.122 688.701 119.955C688.727 122.778 688.889 125.767 689.18 128.934C689.483 132.09 689.977 135.221 690.66 138.33C691.352 141.455 692.41 144.278 693.826 146.809C695.243 149.351 697.045 151.392 699.243 152.934C701.451 154.476 704.201 155.247 707.493 155.247V158.913Z" fill="white"/>
<path d="M855.325 136.226C854.409 136.226 853.289 136.273 851.971 136.372C850.664 136.465 849.221 136.517 847.638 136.517C845.065 136.517 842.232 136.252 839.138 135.726C836.055 135.2 832.935 134.054 829.784 132.288C826.627 130.512 823.555 127.95 820.555 124.601C817.565 121.241 814.893 116.7 812.534 110.976L779.096 30.8716L760.159 74.0799C761.601 72.8299 763.586 71.9289 766.117 71.3716C768.643 70.8195 771.388 70.5383 774.346 70.5383C777.831 70.5383 781.268 70.9029 784.659 71.6216C788.044 72.3456 790.763 73.3299 792.805 74.5799C788.789 74.7049 785.002 75.2987 781.45 76.3508C777.909 77.4081 774.601 78.757 771.534 80.3924C768.476 82.0331 765.648 83.9237 763.055 86.0591C760.456 88.1997 758.122 90.4081 756.055 92.6841C753.982 94.9497 752.18 97.2206 750.638 99.4966C749.096 101.762 747.831 103.882 746.846 105.851L733.909 136.226H724.742L782.638 0.100769H786.388L832.346 110.976C833.997 114.783 835.544 118.007 836.992 120.642C838.435 123.267 839.992 125.424 841.659 127.101C843.336 128.783 845.247 130.054 847.388 130.913C849.523 131.762 852.169 132.32 855.325 132.58V136.226Z" fill="white"/>
</svg>
