<svg width="855" height="159" viewBox="0 0 855 159" fill="none" xmlns="http://www.w3.org/2000/svg">
<path d="M107.417 33.0417C107.151 29.7656 106.672 26.9948 105.979 24.7292C105.297 22.4531 104.443 20.5417 103.417 19C102.401 17.4479 101.302 16.1979 100.125 15.25C98.9427 14.2917 97.7292 13.4531 96.4792 12.7292C93.1875 10.9531 88.8125 10.0625 83.3542 10.0625H64.8125V135.917H45.875V10.0625H30.0833C26.6094 10.0625 23.7188 10.1979 21.4167 10.4583C19.1094 10.724 17.1302 11.1875 15.4792 11.8542C13.8385 12.5104 12.4792 13.3958 11.3958 14.5208C10.3125 15.6354 9.27604 17.0417 8.29167 18.75C7.10937 20.5312 6.10937 22.5521 5.29167 24.8125C4.46875 27.0781 3.95833 29.8229 3.75 33.0417H0.104167C0.171875 32 0.218749 30.974 0.25 29.9583C0.291667 28.9323 0.3125 27.9583 0.3125 27.0417C0.3125 24.7396 0.255208 22.599 0.145833 20.625C0.0468747 18.6562 0 16.8125 0 15.1042C0 12.8698 0.177083 10.9115 0.541667 9.22917C0.916667 7.55208 1.70833 6.16667 2.91667 5.08333C4.13542 4 5.89583 3.19792 8.1875 2.66667C10.4896 2.14063 13.5521 1.875 17.375 1.875H95.9792C99.3958 1.875 102.135 2.16146 104.208 2.72917C106.276 3.28646 107.865 4.09375 108.979 5.14583C110.104 6.1875 110.859 7.5 111.25 9.08333C111.651 10.6562 111.854 12.4583 111.854 14.5C111.854 16.6146 111.755 18.9323 111.563 21.4583C111.365 23.9896 111.271 26.7656 111.271 29.7917C111.271 30.3229 111.271 30.8646 111.271 31.4167C111.271 31.974 111.302 32.5156 111.375 33.0417H107.417Z" fill="#A87133"/>
<path d="M260.093 136.125C259.176 136.125 258.057 136.172 256.739 136.271C255.432 136.365 253.989 136.417 252.406 136.417C249.833 136.417 246.999 136.151 243.906 135.625C240.822 135.099 237.702 133.953 234.551 132.188C231.395 130.411 228.322 127.849 225.322 124.5C222.333 121.141 219.661 116.599 217.301 110.875L183.864 30.7708L164.926 73.9792C166.369 72.7292 168.354 71.8281 170.885 71.2708C173.411 70.7188 176.156 70.4375 179.114 70.4375C182.598 70.4375 186.036 70.8021 189.426 71.5208C192.812 72.2448 195.531 73.2292 197.572 74.4792C193.557 74.6042 189.77 75.1979 186.218 76.25C182.676 77.3073 179.369 78.6563 176.301 80.2917C173.244 81.9323 170.416 83.8229 167.822 85.9583C165.223 88.099 162.89 90.3073 160.822 92.5833C158.749 94.849 156.947 97.1198 155.406 99.3958C153.864 101.661 152.598 103.781 151.614 105.75L138.676 136.125H129.51L187.406 0H191.156L237.114 110.875C238.765 114.682 240.312 117.906 241.76 120.542C243.202 123.167 244.76 125.323 246.426 127C248.104 128.682 250.015 129.953 252.156 130.813C254.291 131.661 256.937 132.219 260.093 132.479V136.125Z" fill="#A87133"/>
<path d="M378.257 2.47916L291.653 127.833H372.84V135.917H266.403V132.271L350.736 10.5625H308.819C305.069 10.5625 301.929 10.7812 299.403 11.2083C296.871 11.625 294.736 12.2292 292.986 13.0208C291.246 13.8125 289.851 14.7708 288.799 15.8958C287.741 17.0104 286.887 18.25 286.236 19.625C285.319 21.1406 284.512 23.25 283.819 25.9583C283.121 28.6562 282.45 31.9375 281.799 35.8125H278.153C278.538 30.4792 278.762 25.9583 278.819 22.25C278.887 18.5312 279.09 15.4375 279.424 12.9792C279.757 10.5104 280.366 8.57291 281.257 7.16666C282.142 5.74999 283.59 4.69791 285.59 3.99999C287.59 3.30728 290.299 2.88541 293.715 2.72916C297.142 2.56249 301.554 2.47916 306.944 2.47916H378.257Z" fill="#A87133"/>
<path d="M529.35 136.125C528.433 136.125 527.314 136.172 525.996 136.271C524.689 136.365 523.246 136.417 521.663 136.417C519.09 136.417 516.256 136.151 513.163 135.625C510.079 135.099 506.959 133.953 503.808 132.188C500.652 130.411 497.579 127.849 494.579 124.5C491.59 121.141 488.918 116.599 486.558 110.875L453.121 30.7708L434.183 73.9792C435.626 72.7292 437.61 71.8281 440.142 71.2708C442.668 70.7188 445.413 70.4375 448.371 70.4375C451.855 70.4375 455.293 70.8021 458.683 71.5208C462.069 72.2448 464.788 73.2292 466.829 74.4792C462.814 74.6042 459.027 75.1979 455.475 76.25C451.933 77.3073 448.626 78.6563 445.558 80.2917C442.501 81.9323 439.673 83.8229 437.079 85.9583C434.48 88.099 432.147 90.3073 430.079 92.5833C428.006 94.849 426.204 97.1198 424.662 99.3958C423.121 101.661 421.855 103.781 420.871 105.75L407.933 136.125H398.767L456.663 0H460.413L506.371 110.875C508.022 114.682 509.569 117.906 511.017 120.542C512.459 123.167 514.017 125.323 515.683 127C517.36 128.682 519.272 129.953 521.413 130.813C523.548 131.661 526.194 132.219 529.35 132.479V136.125Z" fill="#A87133"/>
<path d="M706.993 158.812C698.769 158.812 692.191 157.823 687.264 155.854C682.331 153.88 678.535 150.937 675.868 147.021C673.201 143.104 671.436 138.271 670.576 132.521C669.727 126.771 669.305 120.146 669.305 112.646V23.7708L617.826 135.917H614.66L563.18 23.7708V135.917H554.597V2.27081H573.43L621.868 106.729L669.305 2.27081H688.16V112.646C688.16 114.62 688.17 117.021 688.201 119.854C688.227 122.677 688.389 125.667 688.68 128.833C688.983 131.99 689.477 135.12 690.16 138.229C690.852 141.354 691.91 144.177 693.326 146.708C694.743 149.25 696.545 151.292 698.743 152.833C700.951 154.375 703.701 155.146 706.993 155.146V158.812Z" fill="#A87133"/>
<path d="M854.825 136.125C853.909 136.125 852.789 136.172 851.471 136.271C850.164 136.365 848.721 136.417 847.138 136.417C844.565 136.417 841.732 136.151 838.638 135.625C835.555 135.099 832.435 133.953 829.284 132.188C826.127 130.411 823.055 127.849 820.055 124.5C817.065 121.141 814.393 116.599 812.034 110.875L778.596 30.7708L759.659 73.9792C761.101 72.7292 763.086 71.8281 765.617 71.2708C768.143 70.7188 770.888 70.4375 773.846 70.4375C777.331 70.4375 780.768 70.8021 784.159 71.5208C787.544 72.2448 790.263 73.2292 792.305 74.4792C788.289 74.6042 784.502 75.1979 780.95 76.25C777.409 77.3073 774.101 78.6563 771.034 80.2917C767.976 81.9323 765.148 83.8229 762.555 85.9583C759.956 88.099 757.622 90.3073 755.555 92.5833C753.482 94.849 751.68 97.1198 750.138 99.3958C748.596 101.661 747.331 103.781 746.346 105.75L733.409 136.125H724.242L782.138 0H785.888L831.846 110.875C833.497 114.682 835.044 117.906 836.492 120.542C837.935 123.167 839.492 125.323 841.159 127C842.836 128.682 844.747 129.953 846.888 130.813C849.023 131.661 851.669 132.219 854.825 132.479V136.125Z" fill="#A87133"/>
</svg>
